<?xml version="1.0" encoding="utf-8"?>
<!-- Generator: Adobe Illustrator 24.1.1, SVG Export Plug-In . SVG Version: 6.00 Build 0)  -->
<svg version="1.1" id="Line" xmlns="http://www.w3.org/2000/svg" xmlns:xlink="http://www.w3.org/1999/xlink" x="0px" y="0px"
	 viewBox="0 0 512 512" style="enable-background:new 0 0 512 512;" xml:space="preserve">
<style type="text/css">
	.st0{opacity:0.4;}
	.st1{fill:#FFFFFF;}
</style>
<path class="st0" d="M368,336c41.1,0,72-58.2,72-96c0-39.8-32.2-72-72-72s-72,32.2-72,72C296,277.8,326.9,336,368,336z"/>
<path class="st0" d="M368,352c-75.1,0.1-135.9,60.9-136,136v8c0,4.4,3.6,8,8,8h256c4.4,0,8-3.6,8-8v-8
	C503.9,412.9,443.1,352.1,368,352z M397.7,397.7L376,419.3V464c0,4.4-3.6,8-8,8s-8-3.6-8-8v-44.7l-21.7-21.7
	c-3.1-3.2-3-8.2,0.2-11.3c3.1-3,8-3,11.1,0l18.3,18.3l18.3-18.3c3.2-3.1,8.2-3,11.3,0.2C400.7,389.6,400.7,394.6,397.7,397.7z"/>
<path class="st0" d="M237.3,252.4l12.4,24.8c4,7.9,13.6,11.1,21.5,7.2c5.4-2.7,8.8-8.3,8.8-14.3V128c0-13.3-10.7-24-24-24H136
	c-13.3,0-24,10.7-24,24v96c0,13.3,10.7,24,24,24h94.1C233.1,248,235.9,249.7,237.3,252.4L237.3,252.4z M152,184c-4.4,0-8-3.6-8-8
	s3.6-8,8-8h88c4.4,0,8,3.6,8,8s-3.6,8-8,8H152z"/>
<g>
	<g>
		<path class="st1" d="M144,241c-41.7,0-73-58.8-73-97c0-40.3,32.7-73,73-73s73,32.7,73,73C217,182.2,185.7,241,144,241z M144,89
			c-30.3,0-55,24.7-55,55c0,30.5,25.2,79,55,79s55-48.5,55-79C199,113.7,174.3,89,144,89L144,89z"/>
		<path class="st1" d="M144,72c39.8,0,72,32.2,72,72c0,37.8-30.9,96-72,96s-72-58.2-72-96C72,104.2,104.2,72,144,72 M144,224
			c30.4,0,56-49.1,56-80c0-30.9-25.1-56-56-56c-30.9,0-56,25.1-56,56C88,174.9,113.6,224,144,224 M144,70c-40.8,0-74,33.2-74,74
			c0,19.7,8,43.9,20.9,63.3c14.9,22.4,33.8,34.7,53.1,34.7s38.1-12.3,53.1-34.7C210,187.9,218,163.7,218,144
			C218,103.2,184.8,70,144,70L144,70z M144,222c-12.9,0-26.7-10-37.7-27.5C96.4,178.8,90,159,90,144c0-29.7,24.3-54,54-54
			c29.7,0,54,24.3,54,54c0,15-6.4,34.8-16.3,50.5C170.7,212,156.9,222,144,222L144,222z"/>
	</g>
	<g>
		<path class="st1" d="M16,409c-5,0-9-4-9-9v-8c0.1-75.5,61.5-136.9,137-137c75.5,0.1,136.9,61.5,137,137v8c0,5-4,9-9,9H16z
			 M263,391c-0.5-65.2-53.7-118-119-118S25.5,325.8,25,391H263z"/>
		<path class="st1" d="M144,256c75.1,0.1,135.9,60.9,136,136v8c0,4.4-3.6,8-8,8H16c-4.4,0-8-3.6-8-8v-8
			C8.1,316.9,68.9,256.1,144,256 M24,392h240c0-66.3-53.7-120-120-120S24,325.7,24,392 M144,254L144,254L144,254
			c-36.8,0-71.5,14.4-97.5,40.5S6,355.2,6,392v8c0,5.5,4.5,10,10,10h256c5.5,0,10-4.5,10-10v-8c0-36.8-14.4-71.5-40.5-97.5
			S180.8,254,144,254L144,254z M26,390c1.1-64.1,53.6-116,118-116s116.9,51.9,118,116H26L26,390z"/>
	</g>
	<g>
		<path class="st1" d="M144,377c-5,0-9-4-9-9v-44.3l-21.4-21.4c-3.4-3.5-3.4-9,0-12.5c1.7-1.8,4-2.7,6.5-2.7c2.3,0,4.6,0.9,6.3,2.5
			l17.6,17.6l17.6-17.6c1.7-1.6,3.9-2.5,6.3-2.5c2.3,0,4.6,0.9,6.3,2.5c1.7,1.7,2.7,3.9,2.7,6.3c0,2.4-0.9,4.7-2.5,6.4L153,323.7
			V368C153,373,149,377,144,377z"/>
		<path class="st1" d="M120.1,288.1c2,0,4,0.7,5.6,2.2l18.3,18.3l18.3-18.3h0c1.6-1.5,3.6-2.2,5.6-2.2s4,0.7,5.6,2.2
			c3.2,3.1,3.3,8.1,0.2,11.3L152,323.3V368c0,4.4-3.6,8-8,8c-4.4,0-8-3.6-8-8v-44.7l-21.7-21.7c-3-3.1-3-8,0-11.1
			C115.9,288.9,118,288.1,120.1,288.1 M120.1,286.1C120.1,286.1,120.1,286.1,120.1,286.1c-2.7,0-5.3,1.1-7.2,3.1
			c-3.8,3.9-3.8,10,0,13.9l21.1,21.1V368c0,5.5,4.5,10,10,10c5.5,0,10-4.5,10-10v-43.9l21.1-21.1c3.9-4,3.7-10.3-0.2-14.2
			c-1.9-1.8-4.3-2.8-6.9-2.8c-2.6,0-5.1,1-6.9,2.8l-17,17l-16.9-16.9C125.2,287.1,122.7,286.1,120.1,286.1L120.1,286.1L120.1,286.1z
			"/>
	</g>
	<g>
		<path class="st1" d="M248,191.1c-4.5,0-8.8-1.8-12-5c-3.2-3.2-5-7.5-5-12V32c0-13.8,11.2-25,25-25h128c13.8,0,25,11.2,25,25v96
			c0,13.8-11.2,25-25,25H281.9c-2.7,0-5.1,1.5-6.3,3.9l-12.4,24.8C260.3,187.5,254.5,191.1,248,191.1L248,191.1z M256,25
			c-3.9,0-7,3.1-7,7v137.9l10.5-21.1c4.2-8.5,12.8-13.8,22.3-13.8H384c3.9,0,7-3.1,7-7V32c0-3.9-3.1-7-7-7H256z"/>
		<path class="st1" d="M384,8c13.3,0,24,10.7,24,24v96c0,13.3-10.7,24-24,24H281.9c-3,0-5.8,1.7-7.2,4.4l-12.4,24.8
			c-2.7,5.4-8.3,8.8-14.3,8.8c0,0,0,0,0,0c-8.8,0-16-7.2-16-16V32c0-13.3,10.7-24,24-24H384L384,8 M248,174.1l12.4-24.8
			c4-8.1,12.3-13.3,21.4-13.3c0,0,0.1,0,0.1,0H384c4.4,0,8-3.6,8-8V32c0-4.4-3.6-8-8-8H256c-4.4,0-8,3.6-8,8V174.1 M384,6H256
			c-14.3,0-26,11.7-26,26v142.1c0,9.9,8.1,18,18,18c6.9,0,13-3.8,16.1-10l12.4-24.8c1-2,3.1-3.3,5.4-3.3H384c14.3,0,26-11.7,26-26
			V32C410,17.7,398.3,6,384,6L384,6z M250,165.6V32c0-3.3,2.7-6,6-6h128c3.3,0,6,2.7,6,6v96c0,3.3-2.7,6-6,6H281.9l-0.1,0
			c-9.9,0-18.8,5.5-23.2,14.4L250,165.6L250,165.6z"/>
	</g>
	<g>
		<path class="st1" d="M272,89c-5,0-9-4-9-9s4-9,9-9h96c5,0,9,4,9,9s-4,9-9,9H272z"/>
		<path class="st1" d="M368,72c4.4,0,8,3.6,8,8s-3.6,8-8,8h-96c-4.4,0-8-3.6-8-8s3.6-8,8-8H368 M368,70h-96c-5.5,0-10,4.5-10,10
			s4.5,10,10,10h96c5.5,0,10-4.5,10-10S373.5,70,368,70L368,70z"/>
	</g>
</g>
</svg>
