<?xml version="1.0" encoding="utf-8"?>
<!-- Generator: Adobe Illustrator 24.1.1, SVG Export Plug-In . SVG Version: 6.00 Build 0)  -->
<svg version="1.1" id="Line" xmlns="http://www.w3.org/2000/svg" xmlns:xlink="http://www.w3.org/1999/xlink" x="0px" y="0px"
	 viewBox="0 0 512 512" style="enable-background:new 0 0 512 512;" xml:space="preserve">
<style type="text/css">
	.st0{opacity:0.4;}
	.st1{fill:#FFFFFF;}
</style>
<path class="st0" d="M448.3,227.4h-192c-4.4,0-8,3.2-8,7.2v16.9c-0.3,76.1,37.9,148.3,104,196.3c66.1-48,104.3-120.2,104-196.3
	v-16.9C456.3,230.6,452.7,227.4,448.3,227.4z M422.2,303.7l-64,64.4c-2.9,3-8,3.2-11.3,0.6c-0.3-0.2-0.6-0.5-0.8-0.8l-40-42.9
	c-2.7-3.1-2.2-7.6,1.3-10.1c3.3-2.4,8.2-2,11,0.9l34,36.6l57.8-58.2c2.9-3,8-3.2,11.3-0.6C424.9,296.2,425.2,300.7,422.2,303.7
	L422.2,303.7z"/>
<path class="st0" d="M480.3,184.4h-256c-13.3,0-24,9.6-24,21.5v45.6c-0.1,99.2,55.3,191.8,147.6,246.7c2.7,1.6,6.2,1.6,8.9,0
	c92.3-54.9,147.7-147.5,147.6-246.7v-45.6C504.3,194,493.5,184.4,480.3,184.4z M472.3,251.5c0.3,82.5-42.2,160.5-115.1,211.1
	c-2.9,2-6.9,2-9.8,0C274.5,412,231.9,334,232.3,251.5v-16.9c0-11.9,10.7-21.5,24-21.5h192c13.3,0,24,9.6,24,21.5V251.5z"/>
<g>
	<path class="st1" d="M15.8,398c-4.8,0-8.8-3.9-8.8-8.8s3.9-8.8,8.8-8.8h84.6v-6.8c0-13.4,10.9-24.3,24.3-24.3h23.5l37.9-278.1H85.7
		l55.2,147.9l0,0.1c0.2,1.1,0.3,2.2,0.4,3.3c-0.8,36.1-29.6,65-65.6,65.8c-0.5,0-1,0-1.5,0c-17.6,0-34.3-6.8-46.9-19.1
		C14.6,256.8,7.4,240.3,7,222.6l0-0.1l0-0.1c0.3-3,0.4-3.2,0.4-3.3L61.3,71.2H15.8c-4.8,0-8.8-3.9-8.8-8.8s3.9-8.8,8.8-8.8h172.7
		l5.3-39.1c0.5-3.9,3.6-7,7.5-7.5c0.4-0.1,0.8-0.1,1.2-0.1c4.4,0,8.1,3.3,8.7,7.6l5.3,39.1h172.7c4.8,0,8.8,3.9,8.8,8.8
		s-3.9,8.8-8.8,8.8h-45.5l53.8,147.9c0.2,0.4,0.4,3.3,0.4,3.5c-1.1,35.4-29.7,64-65.1,65.1c-0.7,0-1.4,0-2.1,0
		c-17.5,0-34.1-6.7-46.7-18.9c-12.6-12.2-19.9-28.6-20.4-46.2c0.1-1.2,0.2-2.3,0.4-3.3l0-0.1l55.1-148H218.9l37.9,278.1h23.5
		c13.4,0,24.3,10.9,24.3,24.3v6.8h84.6c4.8,0,8.8,3.9,8.8,8.8s-3.9,8.8-8.8,8.8H15.8z M287.1,380.5v-6.8c0-3.7-3-6.8-6.8-6.8H124.7
		c-3.7,0-6.8,3-6.8,6.8v6.8H287.1z M239.1,349.3L202.5,80.8l-36.6,268.6H239.1z M282.1,230.7c4.3,23.7,24.6,40.8,48.8,40.8
		c24.2,0,44.5-17.1,48.8-40.8H282.1z M25.3,230.7c4.3,23.7,24.6,40.8,48.8,40.8c24.2,0,44.5-17.1,48.8-40.8H25.3z M377.1,213.2
		L331.5,89.9l-46.7,123.3H377.1z M120.2,213.2L73.5,89.9L28,213.2H120.2z"/>
	<path class="st1" d="M202.5,8c3.8,0,7.2,2.8,7.7,6.7l5.4,40h173.6c4.3,0,7.8,3.5,7.8,7.8c0,4.3-3.5,7.8-7.8,7.8h-46.9l54.3,149.3
		c0.1,0.2,0.4,2.9,0.4,3.1c-1.1,34.9-29.2,63-64.1,64.1c-0.7,0-1.4,0-2.1,0c-35.6,0-65-28.3-66.1-64.1c0.1-1,0.2-2.1,0.4-3.1
		l55.6-149.2h-103L256,350.3h24.3c12.9,0,23.3,10.5,23.3,23.3v7.8h85.6c4.3,0,7.8,3.5,7.8,7.8c0,4.3-3.5,7.8-7.8,7.8H15.8
		c-4.3,0-7.8-3.5-7.8-7.8c0-4.3,3.5-7.8,7.8-7.8h85.6v-7.8c0-12.9,10.5-23.3,23.3-23.3H149l38.2-280.1h-103l55.6,149.2
		c0.2,1,0.3,2.1,0.4,3.1c-0.8,35.4-29.3,63.9-64.7,64.7c-0.5,0-1,0-1.5,0c-35.8,0-65.3-28.7-66.1-64.7c0-0.2,0.3-2.9,0.4-3.1
		L62.7,70.2H15.8c-4.3,0-7.8-3.5-7.8-7.8c0-4.3,3.5-7.8,7.8-7.8h173.6l5.4-40c0.5-3.5,3.2-6.2,6.7-6.7C201.8,8,202.2,8,202.5,8
		 M164.7,350.3h75.5l-37.8-277L164.7,350.3 M283.4,214.2h95.1L331.5,87L283.4,214.2 M26.5,214.2h95.1L73.5,87L26.5,214.2
		 M330.9,272.5c24.9,0,46.1-18.2,50-42.8h-99.9C284.8,254.4,306,272.5,330.9,272.5 M74.1,272.5c24.9,0,46.1-18.2,50-42.8H24.2
		C28,254.4,49.2,272.5,74.1,272.5 M116.9,381.5h171.2v-7.8c0-4.3-3.5-7.8-7.8-7.8H124.7c-4.3,0-7.8,3.5-7.8,7.8V381.5 M202.5,6
		L202.5,6c-0.4,0-0.9,0-1.3,0.1c-4.3,0.6-7.8,4-8.4,8.4l-5.2,38.2H15.8c-5.4,0-9.8,4.4-9.8,9.8c0,5.4,4.4,9.8,9.8,9.8h44.1
		L6.5,218.8l0,0l0,0c-0.1,0.2-0.2,0.5-0.5,3.6l0,0.1l0,0.1c0.4,17.9,7.7,34.7,20.5,47.2c12.8,12.5,29.7,19.4,47.6,19.4
		c0.5,0,1,0,1.5,0c17.6-0.4,34.2-7.5,46.7-20c12.5-12.5,19.5-29.1,19.9-46.7l0-0.1l0-0.1c-0.1-1.1-0.2-2.3-0.4-3.4l0-0.2l-0.1-0.2
		L87.1,72.2h97.8l-37.6,276.1h-22.6c-14,0-25.3,11.4-25.3,25.3v5.8H15.8c-5.4,0-9.8,4.4-9.8,9.8c0,5.4,4.4,9.8,9.8,9.8h373.5
		c5.4,0,9.8-4.4,9.8-9.8c0-5.4-4.4-9.8-9.8-9.8h-83.6v-5.8c0-14-11.4-25.3-25.3-25.3h-22.6L220.1,72.2h97.8l-54.6,146.5l-0.1,0.2
		l0,0.2c-0.2,1.1-0.4,2.3-0.4,3.4l0,0.1l0,0.1c0.5,17.8,7.9,34.5,20.7,46.9c12.8,12.4,29.6,19.2,47.4,19.2c0.7,0,1.4,0,2.1,0
		c35.9-1.1,64.9-30.1,66-66l0,0v0c0-0.2-0.3-3.2-0.5-3.8L345.2,72.2h44.1c5.4,0,9.8-4.4,9.8-9.8c0-5.4-4.4-9.8-9.8-9.8H217.4
		l-5.2-38.2C211.6,9.6,207.4,6,202.5,6L202.5,6z M167,348.3l35.5-260.2L238,348.3H167L167,348.3z M286.3,212.2l45.2-119.4
		l44.1,119.4H286.3L286.3,212.2z M29.4,212.2L73.6,92.7l45.2,119.4H29.4L29.4,212.2z M283.3,231.7h95.2
		c-4.6,22.6-24.3,38.8-47.6,38.8C307.6,270.5,288,254.3,283.3,231.7L283.3,231.7z M26.6,231.7h95.2c-4.6,22.6-24.3,38.8-47.6,38.8
		C50.8,270.5,31.2,254.3,26.6,231.7L26.6,231.7z M118.9,379.5v-5.8c0-3.2,2.6-5.8,5.8-5.8h155.6c3.2,0,5.8,2.6,5.8,5.8v5.8H118.9
		L118.9,379.5z"/>
</g>
</svg>
